<mxfile host="app.diagrams.net" modified="2021-02-23T22:57:32.326Z" agent="5.0 (Windows NT 10.0; Win64; x64) AppleWebKit/537.36 (KHTML, like Gecko) Chrome/88.0.4324.190 Safari/537.36" etag="1R7zf7PAOL2UaPQhVH0h" version="14.4.2" type="github">
  <diagram id="KShkS2G7f8YGQDosIYSA" name="Page-1">
    <mxGraphModel dx="496" dy="275" grid="1" gridSize="10" guides="1" tooltips="1" connect="1" arrows="1" fold="1" page="1" pageScale="1" pageWidth="850" pageHeight="1100" math="0" shadow="0">
      <root>
        <mxCell id="0" />
        <mxCell id="1" parent="0" />
        <mxCell id="vZ4YtzhcbYUSYrIXykF0-1" value="" style="whiteSpace=wrap;html=1;aspect=fixed;" parent="1" vertex="1">
          <mxGeometry x="260" y="110" width="240" height="240" as="geometry" />
        </mxCell>
        <mxCell id="vZ4YtzhcbYUSYrIXykF0-2" value="Bank Customer 2" style="shape=umlActor;verticalLabelPosition=bottom;verticalAlign=top;html=1;outlineConnect=0;" parent="1" vertex="1">
          <mxGeometry x="190" y="170" width="30" height="70" as="geometry" />
        </mxCell>
        <mxCell id="vZ4YtzhcbYUSYrIXykF0-3" value="Bank Customer 1" style="shape=umlActor;verticalLabelPosition=bottom;verticalAlign=top;html=1;outlineConnect=0;" parent="1" vertex="1">
          <mxGeometry x="550" y="170" width="30" height="80" as="geometry" />
        </mxCell>
        <object label="BANK&lt;br&gt;ATM" id="vZ4YtzhcbYUSYrIXykF0-4">
          <mxCell style="rounded=0;whiteSpace=wrap;html=1;" parent="1" vertex="1">
            <mxGeometry x="335" y="187.5" width="90" height="70" as="geometry" />
          </mxCell>
        </object>
        <mxCell id="vZ4YtzhcbYUSYrIXykF0-6" value="" style="endArrow=classic;startArrow=classic;html=1;exitX=1;exitY=0.5;exitDx=0;exitDy=0;entryX=1;entryY=0.5;entryDx=0;entryDy=0;" parent="1" source="vZ4YtzhcbYUSYrIXykF0-4" target="vZ4YtzhcbYUSYrIXykF0-1" edge="1">
          <mxGeometry width="50" height="50" relative="1" as="geometry">
            <mxPoint x="400" y="280" as="sourcePoint" />
            <mxPoint x="450" y="230" as="targetPoint" />
          </mxGeometry>
        </mxCell>
        <mxCell id="vZ4YtzhcbYUSYrIXykF0-11" value="" style="endArrow=classic;startArrow=classic;html=1;exitX=0.006;exitY=0.474;exitDx=0;exitDy=0;exitPerimeter=0;" parent="1" source="vZ4YtzhcbYUSYrIXykF0-1" edge="1">
          <mxGeometry width="50" height="50" relative="1" as="geometry">
            <mxPoint x="270" y="250" as="sourcePoint" />
            <mxPoint x="330" y="226" as="targetPoint" />
            <Array as="points">
              <mxPoint x="330" y="226" />
            </Array>
          </mxGeometry>
        </mxCell>
        <mxCell id="vZ4YtzhcbYUSYrIXykF0-15" value="" style="endArrow=classic;startArrow=classic;html=1;" parent="1" target="vZ4YtzhcbYUSYrIXykF0-1" edge="1">
          <mxGeometry width="50" height="50" relative="1" as="geometry">
            <mxPoint x="260" y="200" as="sourcePoint" />
            <mxPoint x="310" y="150" as="targetPoint" />
          </mxGeometry>
        </mxCell>
        <mxCell id="vZ4YtzhcbYUSYrIXykF0-17" value="Bilateral Transactions&lt;br&gt;&lt;div style=&quot;text-align: left&quot;&gt;&lt;span&gt;- Withdrawals&lt;/span&gt;&lt;/div&gt;&lt;div style=&quot;text-align: left&quot;&gt;&lt;span&gt;- Deposits&lt;/span&gt;&lt;/div&gt;&lt;div style=&quot;text-align: left&quot;&gt;&lt;span&gt;- Customer info update\account closing&amp;nbsp;&lt;/span&gt;&lt;/div&gt;" style="text;html=1;strokeColor=none;fillColor=none;align=center;verticalAlign=middle;whiteSpace=wrap;rounded=0;sketch=0;" parent="1" vertex="1">
          <mxGeometry x="270" y="258" width="220" height="60" as="geometry" />
        </mxCell>
        <mxCell id="vZ4YtzhcbYUSYrIXykF0-23" value="" style="endArrow=classic;startArrow=classic;html=1;exitX=0.99;exitY=0.365;exitDx=0;exitDy=0;exitPerimeter=0;" parent="1" source="vZ4YtzhcbYUSYrIXykF0-1" target="vZ4YtzhcbYUSYrIXykF0-1" edge="1">
          <mxGeometry width="50" height="50" relative="1" as="geometry">
            <mxPoint x="380" y="220" as="sourcePoint" />
            <mxPoint x="430" y="170" as="targetPoint" />
            <Array as="points">
              <mxPoint x="400" y="200" />
              <mxPoint x="260" y="190" />
            </Array>
          </mxGeometry>
        </mxCell>
        <mxCell id="vZ4YtzhcbYUSYrIXykF0-24" value="Multilateral Transactions&lt;br&gt;&lt;div style=&quot;text-align: left&quot;&gt;&lt;span&gt;- Money Transfers to other BANK Customer&lt;/span&gt;&lt;span&gt;s&lt;/span&gt;&lt;/div&gt;&lt;div style=&quot;text-align: left&quot;&gt;&lt;span&gt;&amp;nbsp;&lt;/span&gt;&lt;/div&gt;" style="text;html=1;strokeColor=none;fillColor=none;align=center;verticalAlign=middle;whiteSpace=wrap;rounded=0;sketch=0;" parent="1" vertex="1">
          <mxGeometry x="270" y="120" width="220" height="60" as="geometry" />
        </mxCell>
      </root>
    </mxGraphModel>
  </diagram>
</mxfile>
